<svg xmlns:xlink="http://www.w3.org/1999/xlink" xmlns="http://www.w3.org/2000/svg" class="unf-icon" viewBox="0 0 24 24" width="24" height="24" fill="var(--GN500, #00AA5B)" style="display: inline-block; vertical-align: middle;"><path d="M21.32 5.26l-2.58-2.58a1.75 1.75 0 00-2.48 0l-12 12a1.73 1.73 0 00-.5 1l-.4 3.53a1.25 1.25 0 00.36 1c.236.23.551.358.88.36h.1l3.54-.4a1.73 1.73 0 001-.5l12-12a1.74 1.74 0 000-2.48l.08.07zM8.22 18.72a.23.23 0 01-.15.07l-3.22.36.36-3.22a.21.21 0 01.07-.15l9.22-9.22 2.94 2.94-9.22 9.22zm12-12L18.5 8.44 15.56 5.5l1.76-1.76a.24.24 0 01.36 0l2.58 2.58a.24.24 0 010 .36l-.04.04z" fill="#00AA5B"></path></svg>