<svg xmlns:xlink="http://www.w3.org/1999/xlink" xmlns="http://www.w3.org/2000/svg" class="unf-icon" viewBox="0 0 24 24" width="24" height="24" fill="var(--NN600, #6D7588)" style="display: inline-block; margin-right: 6px; vertical-align: middle;"><path d="M7.62 20.74A2.381 2.381 0 015.27 18l.64-3.73-2.71-2.69a2.39 2.39 0 011.32-4.07L8.27 7 10 3.57a2.38 2.38 0 014.27 0L15.9 7l3.74.54A2.39 2.39 0 0121 11.58l-2.72 2.64.61 3.78a2.37 2.37 0 01-.89 2.29 2.41 2.41 0 01-2.52.18l-3.35-1.76-3.4 1.76a2.42 2.42 0 01-1.11.27zm4.46-17a.87.87 0 00-.79.5l-2 4.1L4.74 9a.89.89 0 00-.49 1.51l3.27 3.19-.77 4.51a.87.87 0 00.35.86.89.89 0 00.94.07l4-2.13 4 2.13a.89.89 0 001.29-.93l-.78-4.51 3.28-3.19a.89.89 0 00-.4-1.51l-4.53-.66-2-4.1a.88.88 0 00-.82-.5z" fill="#6D7588"></path></svg>