<svg xmlns:xlink="http://www.w3.org/1999/xlink" xmlns="http://www.w3.org/2000/svg" class="unf-icon css-1nmei8t" viewBox="0 0 24 24" width="24" height="24" fill="var(--NN500, #8D96AA)" data-testid="cartBtnDelete" style="display: inline-block; vertical-align: middle;"><path fill-rule="evenodd" clip-rule="evenodd" d="M20 5.25h-5.24a.7.7 0 00.05-.25 2.76 2.76 0 00-5.52 0 .7.7 0 00.05.25H4a.75.75 0 000 1.5h1.25V20A1.76 1.76 0 007 21.75h10A1.76 1.76 0 0018.75 20V6.75H20a.75.75 0 100-1.5zM10.79 5a1.26 1.26 0 112.52 0 .996.996 0 000 .25h-2.57a.7.7 0 00.05-.25zm6.46 15a.25.25 0 01-.25.25H7a.25.25 0 01-.25-.25V6.75h10.5V20zM10 17.74a.75.75 0 00.75-.75V10.1a.75.75 0 10-1.5 0V17a.74.74 0 00.75.74zm4.349-.054a.74.74 0 01-.289.054.75.75 0 01-.75-.74v-6.9a.75.75 0 111.5 0v6.89a.741.741 0 01-.461.696z" fill="#8D96AA"></path></svg>