<svg xmlns:xlink="http://www.w3.org/1999/xlink" xmlns="http://www.w3.org/2000/svg" class="unf-icon" viewBox="0 0 24 24" width="24" height="24" fill="var(--YN300, #FFC400)" style="display: inline-block; margin-right: 5px; vertical-align: middle;"><path d="M21.57 9.14a2.37 2.37 0 00-1.93-1.63L15.9 7l-1.68-3.4a2.38 2.38 0 00-4.27 0L8.27 7l-3.75.54a2.39 2.39 0 00-1.32 4.04l2.71 2.64L5.27 18a2.38 2.38 0 002.35 2.79 2.42 2.42 0 001.11-.27l3.35-1.76 3.35 1.76a2.41 2.41 0 002.57-.23 2.369 2.369 0 00.89-2.29l-.64-3.73L21 11.58a2.38 2.38 0 00.57-2.44z" fill="#FFC400"></path></svg>